<mxfile host="Electron" modified="2024-05-25T14:46:52.519Z" agent="Mozilla/5.0 (X11; Linux x86_64) AppleWebKit/537.36 (KHTML, like Gecko) draw.io/24.2.5 Chrome/120.0.6099.109 Electron/28.1.0 Safari/537.36" etag="HBmzdKXQxCUIGzI-c9dz" version="24.2.5" type="device">
  <diagram name="Page-1" id="K-FIC4L19wNbAjvmYsdw">
    <mxGraphModel dx="1434" dy="841" grid="1" gridSize="10" guides="1" tooltips="1" connect="1" arrows="1" fold="1" page="1" pageScale="1" pageWidth="850" pageHeight="1100" math="0" shadow="0">
      <root>
        <mxCell id="0" />
        <mxCell id="1" parent="0" />
        <mxCell id="ljewHxEcHpymSgs0MfJS-55" style="edgeStyle=orthogonalEdgeStyle;rounded=0;orthogonalLoop=1;jettySize=auto;html=1;entryX=0;entryY=0.5;entryDx=0;entryDy=0;" parent="1" source="ljewHxEcHpymSgs0MfJS-50" target="ljewHxEcHpymSgs0MfJS-51" edge="1">
          <mxGeometry relative="1" as="geometry" />
        </mxCell>
        <mxCell id="ljewHxEcHpymSgs0MfJS-50" value="" style="rounded=1;whiteSpace=wrap;html=1;fillColor=#e1d5e7;strokeColor=#9673a6;dashed=1;" parent="1" vertex="1">
          <mxGeometry x="520" y="120" width="50" height="290" as="geometry" />
        </mxCell>
        <mxCell id="ljewHxEcHpymSgs0MfJS-25" value="text features" style="rounded=0;whiteSpace=wrap;html=1;rotation=90;fillColor=#fff2cc;strokeColor=#d6b656;" parent="1" vertex="1">
          <mxGeometry x="500" y="330" width="90" height="30" as="geometry" />
        </mxCell>
        <mxCell id="ljewHxEcHpymSgs0MfJS-24" value="visual features" style="rounded=0;whiteSpace=wrap;html=1;rotation=90;fillColor=#d5e8d4;strokeColor=#82b366;" parent="1" vertex="1">
          <mxGeometry x="500" y="175" width="90" height="30" as="geometry" />
        </mxCell>
        <mxCell id="ljewHxEcHpymSgs0MfJS-51" value="" style="rounded=1;whiteSpace=wrap;html=1;fillColor=#ffe6cc;strokeColor=#d79b00;" parent="1" vertex="1">
          <mxGeometry x="650" y="195" width="105" height="140" as="geometry" />
        </mxCell>
        <mxCell id="ljewHxEcHpymSgs0MfJS-52" value="sigmoid" style="rounded=0;whiteSpace=wrap;html=1;rotation=90;" parent="1" vertex="1">
          <mxGeometry x="695" y="254.5" width="70" height="25" as="geometry" />
        </mxCell>
        <mxCell id="ljewHxEcHpymSgs0MfJS-53" value="LP" style="text;html=1;align=center;verticalAlign=middle;whiteSpace=wrap;rounded=0;" parent="1" vertex="1">
          <mxGeometry x="672.5" y="195" width="60" height="30" as="geometry" />
        </mxCell>
        <mxCell id="66tXwYF86N0sf1GKXe0B-2" style="edgeStyle=orthogonalEdgeStyle;rounded=0;orthogonalLoop=1;jettySize=auto;html=1;" parent="1" source="ljewHxEcHpymSgs0MfJS-54" target="ljewHxEcHpymSgs0MfJS-52" edge="1">
          <mxGeometry relative="1" as="geometry" />
        </mxCell>
        <mxCell id="ljewHxEcHpymSgs0MfJS-54" value="fc 81" style="rounded=0;whiteSpace=wrap;html=1;rotation=90;" parent="1" vertex="1">
          <mxGeometry x="640" y="254.5" width="70" height="25" as="geometry" />
        </mxCell>
        <mxCell id="7v5KQFjFV0HMXKvDSDIO-1" style="edgeStyle=orthogonalEdgeStyle;rounded=0;orthogonalLoop=1;jettySize=auto;html=1;" edge="1" parent="1" source="Mq1jqRj8me7Z0p1k6pqm-9" target="GHTzo5dPfjWQMg5shfAh-5">
          <mxGeometry relative="1" as="geometry" />
        </mxCell>
        <mxCell id="Mq1jqRj8me7Z0p1k6pqm-9" value="" style="rounded=1;whiteSpace=wrap;html=1;dashed=1;dashPattern=1 4;" parent="1" vertex="1">
          <mxGeometry x="817.5" y="205" width="150" height="120" as="geometry" />
        </mxCell>
        <mxCell id="Mq1jqRj8me7Z0p1k6pqm-11" value="ocean, person, sports, surf, water, sky, frost, ..." style="text;html=1;align=center;verticalAlign=middle;whiteSpace=wrap;rounded=0;" parent="1" vertex="1">
          <mxGeometry x="827.5" y="222.5" width="130" height="80" as="geometry" />
        </mxCell>
        <mxCell id="Mq1jqRj8me7Z0p1k6pqm-12" value="" style="endArrow=classic;html=1;rounded=0;" parent="1" source="ljewHxEcHpymSgs0MfJS-51" target="Mq1jqRj8me7Z0p1k6pqm-9" edge="1">
          <mxGeometry width="50" height="50" relative="1" as="geometry">
            <mxPoint x="795" y="300" as="sourcePoint" />
            <mxPoint x="845" y="250" as="targetPoint" />
          </mxGeometry>
        </mxCell>
        <mxCell id="GHTzo5dPfjWQMg5shfAh-5" value="Лейбли впорядковані за ймовірністю" style="rounded=0;whiteSpace=wrap;html=1;dashed=1;dashPattern=8 8;" parent="1" vertex="1">
          <mxGeometry x="835" y="120" width="115" height="50" as="geometry" />
        </mxCell>
      </root>
    </mxGraphModel>
  </diagram>
</mxfile>
